<?xml version="1.0" encoding="UTF-8" standalone="no"?>
<!-- Created with Inkscape (http://www.inkscape.org/) -->

<svg
   xmlns:dc="http://purl.org/dc/elements/1.1/"
   xmlns:cc="http://creativecommons.org/ns#"
   xmlns:rdf="http://www.w3.org/1999/02/22-rdf-syntax-ns#"
   xmlns:svg="http://www.w3.org/2000/svg"
   xmlns="http://www.w3.org/2000/svg"
   xmlns:sodipodi="http://sodipodi.sourceforge.net/DTD/sodipodi-0.dtd"
   xmlns:inkscape="http://www.inkscape.org/namespaces/inkscape"
   version="1.1"
   id="svg2"
   width="1300"
   height="1300"
   viewBox="0 0 1300 1300"
   sodipodi:docname="favicon.svg"
   inkscape:version="0.92.4 5da689c313, 2019-01-14">
  <metadata
     id="metadata8">
    <rdf:RDF>
      <cc:Work
         rdf:about="">
        <dc:format>image/svg+xml</dc:format>
        <dc:type
           rdf:resource="http://purl.org/dc/dcmitype/StillImage" />
        <dc:title></dc:title>
      </cc:Work>
    </rdf:RDF>
  </metadata>
  <defs
     id="defs6">
    <filter
       inkscape:collect="always"
       style="color-interpolation-filters:sRGB"
       id="filter3382"
       x="-0.18932247"
       width="1.3786449"
       y="-0.15892994"
       height="1.3178599">
      <feGaussianBlur
         inkscape:collect="always"
         stdDeviation="79.09688"
         id="feGaussianBlur3384" />
    </filter>
    <filter
       inkscape:collect="always"
       style="color-interpolation-filters:sRGB"
       id="filter3418"
       x="-0.059163271"
       width="1.1183265"
       y="-0.049665605"
       height="1.0993312">
      <feGaussianBlur
         inkscape:collect="always"
         stdDeviation="24.717775"
         id="feGaussianBlur3420" />
    </filter>
  </defs>
  <sodipodi:namedview
     pagecolor="#ffffff"
     bordercolor="#666666"
     borderopacity="1"
     objecttolerance="10"
     gridtolerance="10"
     guidetolerance="10"
     inkscape:pageopacity="0"
     inkscape:pageshadow="2"
     inkscape:window-width="1680"
     inkscape:window-height="979"
     id="namedview4"
     showgrid="true"
     inkscape:zoom="0.53315399"
     inkscape:cx="655.65628"
     inkscape:cy="687.27267"
     inkscape:window-x="0"
     inkscape:window-y="0"
     inkscape:window-maximized="1"
     inkscape:current-layer="svg2"
     showguides="true">
    <inkscape:grid
       type="xygrid"
       id="grid10" />
  </sodipodi:namedview>
  <path
     style="opacity:1;fill:none;fill-opacity:1;stroke:#fffdff;stroke-width:200;stroke-linecap:butt;stroke-linejoin:round;stroke-miterlimit:4;stroke-dasharray:none;stroke-opacity:0.99568963;paint-order:normal;filter:url(#filter3382)"
     d="m 453.91402,1271.8474 c -64.496,-6.3844 -124.91602,-22.2665 -161.50487,-42.4536 -45.68308,-25.2048 -73.96344,-68.3333 -73.90549,-112.7086 0.0402,-30.7664 11.45369,-50.0915 36.91678,-62.5069 21.12135,-10.2985 50.46042,-13.7922 72.42931,-8.6248 4.97168,1.1693 9.31603,1.8495 9.65413,1.5114 1.01492,-1.0149 -26.96178,-29.0114 -38.30585,-38.3329 -31.1277,-25.57766 -67.42988,-41.85184 -90.02839,-40.35945 -17.26658,1.14029 -28.00929,9.69922 -38.2851,30.50257 -8.47728,17.16218 -11.80645,33.22928 -10.78462,52.04828 1.63598,30.1301 13.83376,66.3717 31.77916,94.4215 l 8.60264,13.4464 -12.49612,-12.8882 c -32.10728,-33.1148 -54.58877,-82.0749 -65.4341,-142.5021 -3.27237,-18.23268 -4.50477,-65.31277 -2.2339,-85.34002 5.48222,-48.34881 21.69509,-99.04051 41.43706,-129.55848 3.82175,-5.90779 8.47552,-11.31803 10.34174,-12.02272 8.42609,-3.18177 12.99311,3.83836 34.98955,53.78374 10.14581,23.03719 22.04309,48.33522 26.43841,56.21786 34.18659,61.31089 86.28579,127.41852 158.79006,201.48572 47.25152,48.2698 86.23296,79.8922 137.24553,111.3359 18.49339,11.3992 49.71545,28.4098 50.57209,27.5532 0.31748,-0.3175 -3.29883,-6.9364 -8.03624,-14.7088 -12.68904,-20.8177 -28.85421,-55.0886 -32.25282,-68.3769 -13.51407,-52.8396 -0.17214,-134.8739 29.49132,-181.33035 21.24971,-33.27956 63.20388,-58.11433 108.09646,-63.98768 34.45896,-4.5083 58.49752,6.75132 84.92137,39.77704 23.58343,29.47564 39.38185,75.06959 38.22899,110.32829 -0.56673,17.3325 -2.89815,22.8311 -10.88684,25.6759 -9.97814,3.5534 -31.38579,-8.1275 -47.89807,-26.1354 -24.44109,-26.6548 -33.55233,-56.85502 -23.40814,-77.58899 2.23433,-4.56682 5.06893,-8.68953 6.29911,-9.1616 3.74598,-1.43746 9.63003,1.72259 19.34557,10.38969 10.87476,9.7012 13.45489,10.46875 11.42746,3.39949 -4.79033,-16.70288 -18.50124,-32.79514 -33.97977,-39.88145 -6.82552,-3.12482 -10.05117,-3.73169 -16.84187,-3.16853 -7.46411,0.61897 -9.03192,1.37463 -14.07992,6.78637 -3.44313,3.69123 -6.65678,9.27943 -8.15912,14.18783 -7.29415,23.83149 -5.0841,72.82319 4.58832,101.71189 7.35749,21.9745 24.33495,42.2846 43.68139,52.256 20.00066,10.3085 51.55852,17.8565 65.75609,15.7273 14.80232,-2.2197 21.52177,-10.801 24.0697,-30.739 1.7824,-13.9475 0.009,-33.0443 -5.21717,-56.1805 -1.96804,-8.7124 -3.38126,-16.0527 -3.14049,-16.3118 0.93695,-1.0082 12.76035,22.2875 17.89229,35.2534 10.82745,27.3556 14.70218,53.4308 11.00634,74.0678 -4.98879,27.8569 -19.83643,46.4008 -53.79272,67.1842 -78.6038,48.1105 -139.43895,69.8044 -214.98129,76.6628 -22.9798,2.0863 -93.84324,1.5799 -118.34797,-0.8458 z m 210.37505,-4.3316 c 39.31606,-10.1955 88.12876,-33.766 139.65574,-67.4365 l 20.47315,-13.3781 h 10.78179 10.7818 l 8.48215,14.4123 c 9.68177,16.4508 17.13158,32.0707 21.5392,45.1613 l 3.04185,9.0341 -5.49343,6.8066 c -3.02141,3.7436 -6.19535,7.3053 -7.05325,7.9149 -0.85789,0.6097 -49.76087,1.0854 -108.67329,1.0574 l -107.11349,-0.051 z m 237.05621,-4.2512 c -1.25257,-4.3562 -10.75443,-41.1858 -21.11523,-81.8437 -19.36687,-75.9995 -26.92936,-101.3883 -44.66688,-149.9564 -15.1354,-41.44293 -47.75824,-123.36283 -52.60776,-132.10452 -7.03045,-12.67308 -11.70745,-14.2065 -53.45054,-17.52456 -45.7978,-3.64034 -59.0927,-3.61176 -75.02197,0.16135 -23.08607,5.46831 -57.24894,25.44722 -78.07216,45.65765 -3.52644,3.42268 -6.41171,5.67621 -6.41171,5.00782 0,-0.66838 2.85573,-6.70432 6.34607,-13.41321 22.36059,-42.97984 58.51693,-76.64422 114.82664,-106.91253 24.85694,-13.36143 40.33013,-25.41088 67.46113,-52.53398 54.35367,-54.33788 85.26508,-104.68216 94.3286,-153.62955 3.26224,-17.61761 4.56176,-63.61418 2.28892,-81.016 -3.50735,-26.8536 -16.84565,-71.74606 -24.42611,-82.21062 -6.09358,-8.41197 -9.38833,-10.13728 -28.69823,-15.02814 -33.14455,-8.3949 -62.67262,-20.61963 -76.79143,-31.7919 L 720,391.90499 l 4.88084,-24.64428 c 9.25914,-46.75097 12.91754,-76.32457 13.68639,-110.6368 0.47351,-21.13288 0.20727,-31.17915 -0.79963,-30.17282 -1.72735,1.72633 -10.24572,43.86683 -21.49967,106.35917 -13.62049,75.63331 -27.12692,119.29546 -47.91186,154.88417 -23.63352,40.4662 -48.95705,59.3428 -79.61009,59.3428 -39.2106,0 -63.39727,-20.99609 -71.0952,-61.71668 -1.42373,-7.53117 -3.03531,-13.18892 -3.58134,-12.57272 -2.24544,2.53397 -10.96602,27.91187 -15.14943,44.08659 -5.4117,20.92379 -7.02017,40.96001 -4.40206,54.83541 4.19608,22.23848 15.76037,31.09515 42.26805,32.37159 11.50557,0.55403 17.1056,0.0352 27.24229,-2.52408 12.83087,-3.23946 31.21479,-11.106 39.13617,-16.74652 8.70894,-6.20132 5.78965,-2.60277 -10.82267,13.34093 -47.52215,45.60942 -95.87917,84.33785 -121.53589,97.33633 l -7.92037,4.01269 v -20.17299 c 0,-102.41097 28.39962,-206.61435 85.43174,-313.46463 62.41288,-116.93124 140.02636,-213.49684 208.58783,-259.52207 13.73317,-9.219056 34.54351,-20.907951 37.2235,-20.907951 0.50935,0 -0.93435,2.206388 -3.20822,4.90309 -10.05632,11.926211 -10.27659,21.682331 -0.68514,30.347621 7.0977,6.41235 11.40928,8.67761 37.0863,19.48491 42.43669,17.86139 67.62638,24.13786 97.20808,24.2212 17.5299,0.0494 21.5462,-0.4066 28.8359,-3.27394 9.4804,-3.72887 12.9404,-6.84882 14.6875,-13.24355 5.0074,-18.32754 -17.3305,-38.64866 -51.82097,-47.14237 -19.45168,-4.790203 -20.70784,-5.00042 -19.6497,-3.288298 0.53337,0.863003 1.65985,1.569103 2.5033,1.569103 2.99304,0 23.10368,12.631105 29.50457,18.531185 15.3719,14.16942 1.2335,21.60056 -29.15473,15.32371 -27.09117,-5.59583 -66.33363,-22.12473 -77.87064,-32.79907 -15.749,-14.57136 0.43415,-21.882749 44.80207,-20.241129 51.58061,1.908491 82.7175,15.975272 138.87478,62.739719 20.3233,16.92412 34.0841,24.33447 45.1881,24.33447 11.4662,0 22.4385,-3.76976 29.0091,-9.96665 l 5.6867,-5.36325 2.9072,3.51619 c 1.5989,1.93392 5.8077,9.62619 9.353,17.09396 21.383,45.04235 11.89,91.89804 -28.5213,140.777 -5.0174,6.06866 -20.0833,21.1022 -33.4798,33.40786 -13.3964,12.30567 -27.4426,26.00983 -31.2138,30.45371 -27.10128,31.93549 -31.56168,60.29825 -14.82258,94.25332 5.8307,11.82753 28.63298,45.18104 56.60268,82.79419 58.7319,78.98172 77.9738,123.44865 75.7273,175.00232 -0.4339,9.95703 -1.876,23.19536 -3.2047,29.4185 -7.9164,37.0775 -28.7719,82.75249 -57.1751,125.21718 -8.4746,12.66987 -31.558,43.86659 -32.0671,43.33802 -0.1811,-0.18797 2.9507,-10.18565 6.9597,-22.21706 14.0216,-42.08017 18.8875,-74.09248 17.6121,-115.86529 -1.1801,-38.64588 -6.0677,-60.34454 -19.947,-88.55551 -24.4729,-49.74367 -66.29048,-70.19848 -89.49138,-43.77416 -18.5568,21.13511 -30.39549,78.36259 -28.48076,137.6741 1.12028,34.70224 7.13406,53.35953 21.96306,68.13886 10.2186,10.18422 19.6344,14.29925 32.9372,14.39467 14.9674,0.10738 21.5451,-4.46918 29.86438,-20.77907 5.4472,-10.67914 6.0219,-12.94384 6.5919,-25.97671 0.436,-9.96785 0.059,-14.95906 -1.2491,-16.53511 -2.9666,-3.57444 -4.2844,-2.70567 -6.09478,4.01785 -3.62,13.44367 -10.6437,18.08155 -21.0667,13.91104 -9.5762,-3.83162 -18.1612,-17.77959 -23.5676,-38.29007 -5.1069,-19.37457 -1.8366,-67.83914 5.653,-83.77244 6.2779,-13.35579 17.0656,-17.70225 29.404,-11.84721 14.72808,6.98893 28.73208,40.49292 33.80978,80.88878 2.4893,19.80314 1.1493,83.81497 -2.203,105.24931 -3.0699,19.62867 -9.8705,48.29043 -16.6446,70.15179 -15.51418,50.0667 -32.71768,126.3224 -42.37418,187.8261 -5.8186,37.0592 -4.4341,63.7785 3.912,75.4995 2.8302,3.9746 10.34,7.6023 20.0701,9.6951 10.1882,2.1912 15.85878,16.2825 13.90278,34.5479 l -1.07088,10.0005 h -48.0495 -48.04921 z m 7.07109,-1051.74013 c 16.20785,-4.24499 25.77825,-5.78726 42.99615,-6.92879 12.1812,-0.80759 26.464,-1.8832 31.7395,-2.39026 l 9.5916,-0.9219 -5.0081,-5.16699 c -13.6316,-14.0642 -30.2621,-16.20727 -56.9803,-7.3427 -20.64219,6.84862 -44.95773,18.87503 -53.26063,26.34255 l -6.52176,5.86562 8.29752,-1.99856 c 4.56365,-1.0992 17.67936,-4.45574 29.14602,-7.45897 z M 317.08228,534.18595 c -3.25809,-8.49043 25.17948,-70.59528 54.73652,-119.53919 66.03759,-109.35248 148.73793,-189.69673 261.54313,-254.09183 16.90365,-9.64948 59.34704,-31.41122 61.26349,-31.41122 0.52695,0 -3.99449,4.5825 -10.04763,10.18332 -13.21255,12.22531 -34.24974,35.33465 -50.05445,54.98484 -51.33924,63.8306 -118.82878,183.70613 -140.63656,249.79985 -3.8,11.51681 -4.59111,12.72603 -10.19698,15.58593 -3.34255,1.70523 -11.94203,3.84069 -19.11,4.74546 -24.91872,3.14532 -36.76814,-3.00109 -41.73034,-21.64597 -4.50096,-16.91167 -1.8411,-55.49142 5.44622,-78.995 1.53256,-4.94289 2.56297,-9.21058 2.28981,-9.48374 -0.86506,-0.86507 -15.26256,16.54836 -22.67712,27.42741 -9.25454,13.57878 -20.52389,36.18318 -25.58595,51.32106 -7.94785,23.76771 -10.77546,52.2885 -6.08351,61.36171 6.72407,13.00293 31.12641,11.57411 69.1568,-4.04931 23.16855,-9.51795 23.66576,-9.63886 19.09017,-4.64154 -9.93331,10.84875 -42.01752,23.55045 -106.89539,42.31842 -30.30435,8.76648 -38.99195,10.08112 -40.50821,6.1298 z"
     id="path2408"
     inkscape:connector-curvature="0"
     inkscape:label="PokemonBackground" />
  <path
     inkscape:label="PokemonBorder"
     inkscape:connector-curvature="0"
     id="path1206"
     d="m 453.91402,1271.8474 c -64.496,-6.3844 -124.91602,-22.2665 -161.50487,-42.4536 -45.68308,-25.2048 -73.96344,-68.3333 -73.90549,-112.7086 0.0402,-30.7664 11.45369,-50.0915 36.91678,-62.5069 21.12135,-10.2985 50.46042,-13.7922 72.42931,-8.6248 4.97168,1.1693 9.31603,1.8495 9.65413,1.5114 1.01492,-1.0149 -26.96178,-29.0114 -38.30585,-38.3329 -31.1277,-25.57766 -67.42988,-41.85184 -90.02839,-40.35945 -17.26658,1.14029 -28.00929,9.69922 -38.2851,30.50257 -8.47728,17.16218 -11.80645,33.22928 -10.78462,52.04828 1.63598,30.1301 13.83376,66.3717 31.77916,94.4215 l 8.60264,13.4464 -12.49612,-12.8882 c -32.10728,-33.1148 -54.58877,-82.0749 -65.4341,-142.5021 -3.27237,-18.23268 -4.50477,-65.31277 -2.2339,-85.34002 5.48222,-48.34881 21.69509,-99.04051 41.43706,-129.55848 3.82175,-5.90779 8.47552,-11.31803 10.34174,-12.02272 8.42609,-3.18177 12.99311,3.83836 34.98955,53.78374 10.14581,23.03719 22.04309,48.33522 26.43841,56.21786 34.18659,61.31089 86.28579,127.41852 158.79006,201.48572 47.25152,48.2698 86.23296,79.8922 137.24553,111.3359 18.49339,11.3992 49.71545,28.4098 50.57209,27.5532 0.31748,-0.3175 -3.29883,-6.9364 -8.03624,-14.7088 -12.68904,-20.8177 -28.85421,-55.0886 -32.25282,-68.3769 -13.51407,-52.8396 -0.17214,-134.8739 29.49132,-181.33035 21.24971,-33.27956 63.20388,-58.11433 108.09646,-63.98768 34.45896,-4.5083 58.49752,6.75132 84.92137,39.77704 23.58343,29.47564 39.38185,75.06959 38.22899,110.32829 -0.56673,17.3325 -2.89815,22.8311 -10.88684,25.6759 -9.97814,3.5534 -31.38579,-8.1275 -47.89807,-26.1354 -24.44109,-26.6548 -33.55233,-56.85502 -23.40814,-77.58899 2.23433,-4.56682 5.06893,-8.68953 6.29911,-9.1616 3.74598,-1.43746 9.63003,1.72259 19.34557,10.38969 10.87476,9.7012 13.45489,10.46875 11.42746,3.39949 -4.79033,-16.70288 -18.50124,-32.79514 -33.97977,-39.88145 -6.82552,-3.12482 -10.05117,-3.73169 -16.84187,-3.16853 -7.46411,0.61897 -9.03192,1.37463 -14.07992,6.78637 -3.44313,3.69123 -6.65678,9.27943 -8.15912,14.18783 -7.29415,23.83149 -5.0841,72.82319 4.58832,101.71189 7.35749,21.9745 24.33495,42.2846 43.68139,52.256 20.00066,10.3085 51.55852,17.8565 65.75609,15.7273 14.80232,-2.2197 21.52177,-10.801 24.0697,-30.739 1.7824,-13.9475 0.009,-33.0443 -5.21717,-56.1805 -1.96804,-8.7124 -3.38126,-16.0527 -3.14049,-16.3118 0.93695,-1.0082 12.76035,22.2875 17.89229,35.2534 10.82745,27.3556 14.70218,53.4308 11.00634,74.0678 -4.98879,27.8569 -19.83643,46.4008 -53.79272,67.1842 -78.6038,48.1105 -139.43895,69.8044 -214.98129,76.6628 -22.9798,2.0863 -93.84324,1.5799 -118.34797,-0.8458 z m 210.37505,-4.3316 c 39.31606,-10.1955 88.12876,-33.766 139.65574,-67.4365 l 20.47315,-13.3781 h 10.78179 10.7818 l 8.48215,14.4123 c 9.68177,16.4508 17.13158,32.0707 21.5392,45.1613 l 3.04185,9.0341 -5.49343,6.8066 c -3.02141,3.7436 -6.19535,7.3053 -7.05325,7.9149 -0.85789,0.6097 -49.76087,1.0854 -108.67329,1.0574 l -107.11349,-0.051 z m 237.05621,-4.2512 c -1.25257,-4.3562 -10.75443,-41.1858 -21.11523,-81.8437 -19.36687,-75.9995 -26.92936,-101.3883 -44.66688,-149.9564 -15.1354,-41.44293 -47.75824,-123.36283 -52.60776,-132.10452 -7.03045,-12.67308 -11.70745,-14.2065 -53.45054,-17.52456 -45.7978,-3.64034 -59.0927,-3.61176 -75.02197,0.16135 -23.08607,5.46831 -57.24894,25.44722 -78.07216,45.65765 -3.52644,3.42268 -6.41171,5.67621 -6.41171,5.00782 0,-0.66838 2.85573,-6.70432 6.34607,-13.41321 22.36059,-42.97984 58.51693,-76.64422 114.82664,-106.91253 24.85694,-13.36143 40.33013,-25.41088 67.46113,-52.53398 54.35367,-54.33788 85.26508,-104.68216 94.3286,-153.62955 3.26224,-17.61761 4.56176,-63.61418 2.28892,-81.016 -3.50735,-26.8536 -16.84565,-71.74606 -24.42611,-82.21062 -6.09358,-8.41197 -9.38833,-10.13728 -28.69823,-15.02814 -33.14455,-8.3949 -62.67262,-20.61963 -76.79143,-31.7919 L 720,391.90499 l 4.88084,-24.64428 c 9.25914,-46.75097 12.91754,-76.32457 13.68639,-110.6368 0.47351,-21.13288 0.20727,-31.17915 -0.79963,-30.17282 -1.72735,1.72633 -10.24572,43.86683 -21.49967,106.35917 -13.62049,75.63331 -27.12692,119.29546 -47.91186,154.88417 -23.63352,40.4662 -48.95705,59.3428 -79.61009,59.3428 -39.2106,0 -63.39727,-20.99609 -71.0952,-61.71668 -1.42373,-7.53117 -3.03531,-13.18892 -3.58134,-12.57272 -2.24544,2.53397 -10.96602,27.91187 -15.14943,44.08659 -5.4117,20.92379 -7.02017,40.96001 -4.40206,54.83541 4.19608,22.23848 15.76037,31.09515 42.26805,32.37159 11.50557,0.55403 17.1056,0.0352 27.24229,-2.52408 12.83087,-3.23946 31.21479,-11.106 39.13617,-16.74652 8.70894,-6.20132 5.78965,-2.60277 -10.82267,13.34093 -47.52215,45.60942 -95.87917,84.33785 -121.53589,97.33633 l -7.92037,4.01269 v -20.17299 c 0,-102.41097 28.39962,-206.61435 85.43174,-313.46463 62.41288,-116.93124 140.02636,-213.49684 208.58783,-259.52207 13.73317,-9.219056 34.54351,-20.907951 37.2235,-20.907951 0.50935,0 -0.93435,2.206388 -3.20822,4.90309 -10.05632,11.926211 -10.27659,21.682331 -0.68514,30.347621 7.0977,6.41235 11.40928,8.67761 37.0863,19.48491 42.43669,17.86139 67.62638,24.13786 97.20808,24.2212 17.5299,0.0494 21.5462,-0.4066 28.8359,-3.27394 9.4804,-3.72887 12.9404,-6.84882 14.6875,-13.24355 5.0074,-18.32754 -17.3305,-38.64866 -51.82097,-47.14237 -19.45168,-4.790203 -20.70784,-5.00042 -19.6497,-3.288298 0.53337,0.863003 1.65985,1.569103 2.5033,1.569103 2.99304,0 23.10368,12.631105 29.50457,18.531185 15.3719,14.16942 1.2335,21.60056 -29.15473,15.32371 -27.09117,-5.59583 -66.33363,-22.12473 -77.87064,-32.79907 -15.749,-14.57136 0.43415,-21.882749 44.80207,-20.241129 51.58061,1.908491 82.7175,15.975272 138.87478,62.739719 20.3233,16.92412 34.0841,24.33447 45.1881,24.33447 11.4662,0 22.4385,-3.76976 29.0091,-9.96665 l 5.6867,-5.36325 2.9072,3.51619 c 1.5989,1.93392 5.8077,9.62619 9.353,17.09396 21.383,45.04235 11.89,91.89804 -28.5213,140.777 -5.0174,6.06866 -20.0833,21.1022 -33.4798,33.40786 -13.3964,12.30567 -27.4426,26.00983 -31.2138,30.45371 -27.10128,31.93549 -31.56168,60.29825 -14.82258,94.25332 5.8307,11.82753 28.63298,45.18104 56.60268,82.79419 58.7319,78.98172 77.9738,123.44865 75.7273,175.00232 -0.4339,9.95703 -1.876,23.19536 -3.2047,29.4185 -7.9164,37.0775 -28.7719,82.75249 -57.1751,125.21718 -8.4746,12.66987 -31.558,43.86659 -32.0671,43.33802 -0.1811,-0.18797 2.9507,-10.18565 6.9597,-22.21706 14.0216,-42.08017 18.8875,-74.09248 17.6121,-115.86529 -1.1801,-38.64588 -6.0677,-60.34454 -19.947,-88.55551 -24.4729,-49.74367 -66.29048,-70.19848 -89.49138,-43.77416 -18.5568,21.13511 -30.39549,78.36259 -28.48076,137.6741 1.12028,34.70224 7.13406,53.35953 21.96306,68.13886 10.2186,10.18422 19.6344,14.29925 32.9372,14.39467 14.9674,0.10738 21.5451,-4.46918 29.86438,-20.77907 5.4472,-10.67914 6.0219,-12.94384 6.5919,-25.97671 0.436,-9.96785 0.059,-14.95906 -1.2491,-16.53511 -2.9666,-3.57444 -4.2844,-2.70567 -6.09478,4.01785 -3.62,13.44367 -10.6437,18.08155 -21.0667,13.91104 -9.5762,-3.83162 -18.1612,-17.77959 -23.5676,-38.29007 -5.1069,-19.37457 -1.8366,-67.83914 5.653,-83.77244 6.2779,-13.35579 17.0656,-17.70225 29.404,-11.84721 14.72808,6.98893 28.73208,40.49292 33.80978,80.88878 2.4893,19.80314 1.1493,83.81497 -2.203,105.24931 -3.0699,19.62867 -9.8705,48.29043 -16.6446,70.15179 -15.51418,50.0667 -32.71768,126.3224 -42.37418,187.8261 -5.8186,37.0592 -4.4341,63.7785 3.912,75.4995 2.8302,3.9746 10.34,7.6023 20.0701,9.6951 10.1882,2.1912 15.85878,16.2825 13.90278,34.5479 l -1.07088,10.0005 h -48.0495 -48.04921 z m 7.07109,-1051.74013 c 16.20785,-4.24499 25.77825,-5.78726 42.99615,-6.92879 12.1812,-0.80759 26.464,-1.8832 31.7395,-2.39026 l 9.5916,-0.9219 -5.0081,-5.16699 c -13.6316,-14.0642 -30.2621,-16.20727 -56.9803,-7.3427 -20.64219,6.84862 -44.95773,18.87503 -53.26063,26.34255 l -6.52176,5.86562 8.29752,-1.99856 c 4.56365,-1.0992 17.67936,-4.45574 29.14602,-7.45897 z M 317.08228,534.18595 c -3.25809,-8.49043 25.17948,-70.59528 54.73652,-119.53919 66.03759,-109.35248 148.73793,-189.69673 261.54313,-254.09183 16.90365,-9.64948 59.34704,-31.41122 61.26349,-31.41122 0.52695,0 -3.99449,4.5825 -10.04763,10.18332 -13.21255,12.22531 -34.24974,35.33465 -50.05445,54.98484 -51.33924,63.8306 -118.82878,183.70613 -140.63656,249.79985 -3.8,11.51681 -4.59111,12.72603 -10.19698,15.58593 -3.34255,1.70523 -11.94203,3.84069 -19.11,4.74546 -24.91872,3.14532 -36.76814,-3.00109 -41.73034,-21.64597 -4.50096,-16.91167 -1.8411,-55.49142 5.44622,-78.995 1.53256,-4.94289 2.56297,-9.21058 2.28981,-9.48374 -0.86506,-0.86507 -15.26256,16.54836 -22.67712,27.42741 -9.25454,13.57878 -20.52389,36.18318 -25.58595,51.32106 -7.94785,23.76771 -10.77546,52.2885 -6.08351,61.36171 6.72407,13.00293 31.12641,11.57411 69.1568,-4.04931 23.16855,-9.51795 23.66576,-9.63886 19.09017,-4.64154 -9.93331,10.84875 -42.01752,23.55045 -106.89539,42.31842 -30.30435,8.76648 -38.99195,10.08112 -40.50821,6.1298 z"
     style="opacity:0.9;fill:#c70000;fill-opacity:1;stroke:#0403ff;stroke-width:12;stroke-linecap:butt;stroke-linejoin:bevel;stroke-miterlimit:4;stroke-dasharray:none;stroke-opacity:0.90476191;paint-order:normal;filter:url(#filter3418)" />
  <path
     style="fill:#180000;fill-opacity:0.89285715;stroke:none;stroke-width:1.5;stroke-miterlimit:4;stroke-dasharray:none;stroke-opacity:0.99568942"
     d="m 453.91402,1271.8474 c -64.496,-6.3844 -124.91602,-22.2665 -161.50487,-42.4536 -45.68308,-25.2048 -73.96344,-68.3333 -73.90549,-112.7086 0.0402,-30.7664 11.45369,-50.0915 36.91678,-62.5069 21.12135,-10.2985 50.46042,-13.7922 72.42931,-8.6248 4.97168,1.1693 9.31603,1.8495 9.65413,1.5114 1.01492,-1.0149 -26.96178,-29.0114 -38.30585,-38.3329 -31.1277,-25.57766 -67.42988,-41.85184 -90.02839,-40.35945 -17.26658,1.14029 -28.00929,9.69922 -38.2851,30.50257 -8.47728,17.16218 -11.80645,33.22928 -10.78462,52.04828 1.63598,30.1301 13.83376,66.3717 31.77916,94.4215 l 8.60264,13.4464 -12.49612,-12.8882 c -32.10728,-33.1148 -54.58877,-82.0749 -65.4341,-142.5021 -3.27237,-18.23268 -4.50477,-65.31277 -2.2339,-85.34002 5.48222,-48.34881 21.69509,-99.04051 41.43706,-129.55848 3.82175,-5.90779 8.47552,-11.31803 10.34174,-12.02272 8.42609,-3.18177 12.99311,3.83836 34.98955,53.78374 10.14581,23.03719 22.04309,48.33522 26.43841,56.21786 34.18659,61.31089 86.28579,127.41852 158.79006,201.48572 47.25152,48.2698 86.23296,79.8922 137.24553,111.3359 18.49339,11.3992 49.71545,28.4098 50.57209,27.5532 0.31748,-0.3175 -3.29883,-6.9364 -8.03624,-14.7088 -12.68904,-20.8177 -28.85421,-55.0886 -32.25282,-68.3769 -13.51407,-52.8396 -0.17214,-134.8739 29.49132,-181.33035 21.24971,-33.27956 63.20388,-58.11433 108.09646,-63.98768 34.45896,-4.5083 58.49752,6.75132 84.92137,39.77704 23.58343,29.47564 39.38185,75.06959 38.22899,110.32829 -0.56673,17.3325 -2.89815,22.8311 -10.88684,25.6759 -9.97814,3.5534 -31.38579,-8.1275 -47.89807,-26.1354 -24.44109,-26.6548 -33.55233,-56.85502 -23.40814,-77.58899 2.23433,-4.56682 5.06893,-8.68953 6.29911,-9.1616 3.74598,-1.43746 9.63003,1.72259 19.34557,10.38969 10.87476,9.7012 13.45489,10.46875 11.42746,3.39949 -4.79033,-16.70288 -18.50124,-32.79514 -33.97977,-39.88145 -6.82552,-3.12482 -10.05117,-3.73169 -16.84187,-3.16853 -7.46411,0.61897 -9.03192,1.37463 -14.07992,6.78637 -3.44313,3.69123 -6.65678,9.27943 -8.15912,14.18783 -7.29415,23.83149 -5.0841,72.82319 4.58832,101.71189 7.35749,21.9745 24.33495,42.2846 43.68139,52.256 20.00066,10.3085 51.55852,17.8565 65.75609,15.7273 14.80232,-2.2197 21.52177,-10.801 24.0697,-30.739 1.7824,-13.9475 0.009,-33.0443 -5.21717,-56.1805 -1.96804,-8.7124 -3.38126,-16.0527 -3.14049,-16.3118 0.93695,-1.0082 12.76035,22.2875 17.89229,35.2534 10.82745,27.3556 14.70218,53.4308 11.00634,74.0678 -4.98879,27.8569 -19.83643,46.4008 -53.79272,67.1842 -78.6038,48.1105 -139.43895,69.8044 -214.98129,76.6628 -22.9798,2.0863 -93.84324,1.5799 -118.34797,-0.8458 z m 210.37505,-4.3316 c 39.31606,-10.1955 88.12876,-33.766 139.65574,-67.4365 l 20.47315,-13.3781 h 10.78179 10.7818 l 8.48215,14.4123 c 9.68177,16.4508 17.13158,32.0707 21.5392,45.1613 l 3.04185,9.0341 -5.49343,6.8066 c -3.02141,3.7436 -6.19535,7.3053 -7.05325,7.9149 -0.85789,0.6097 -49.76087,1.0854 -108.67329,1.0574 l -107.11349,-0.051 z m 237.05621,-4.2512 c -1.25257,-4.3562 -10.75443,-41.1858 -21.11523,-81.8437 -19.36687,-75.9995 -26.92936,-101.3883 -44.66688,-149.9564 -15.1354,-41.44293 -47.75824,-123.36283 -52.60776,-132.10452 -7.03045,-12.67308 -11.70745,-14.2065 -53.45054,-17.52456 -45.7978,-3.64034 -59.0927,-3.61176 -75.02197,0.16135 -23.08607,5.46831 -57.24894,25.44722 -78.07216,45.65765 -3.52644,3.42268 -6.41171,5.67621 -6.41171,5.00782 0,-0.66838 2.85573,-6.70432 6.34607,-13.41321 22.36059,-42.97984 58.51693,-76.64422 114.82664,-106.91253 24.85694,-13.36143 40.33013,-25.41088 67.46113,-52.53398 54.35367,-54.33788 85.26508,-104.68216 94.3286,-153.62955 3.26224,-17.61761 4.56176,-63.61418 2.28892,-81.016 -3.50735,-26.8536 -16.84565,-71.74606 -24.42611,-82.21062 -6.09358,-8.41197 -9.38833,-10.13728 -28.69823,-15.02814 -33.14455,-8.3949 -62.67262,-20.61963 -76.79143,-31.7919 L 720,391.90499 l 4.88084,-24.64428 c 9.25914,-46.75097 12.91754,-76.32457 13.68639,-110.6368 0.47351,-21.13288 0.20727,-31.17915 -0.79963,-30.17282 -1.72735,1.72633 -10.24572,43.86683 -21.49967,106.35917 -13.62049,75.63331 -27.12692,119.29546 -47.91186,154.88417 -23.63352,40.4662 -48.95705,59.3428 -79.61009,59.3428 -39.2106,0 -63.39727,-20.99609 -71.0952,-61.71668 -1.42373,-7.53117 -3.03531,-13.18892 -3.58134,-12.57272 -2.24544,2.53397 -10.96602,27.91187 -15.14943,44.08659 -5.4117,20.92379 -7.02017,40.96001 -4.40206,54.83541 4.19608,22.23848 15.76037,31.09515 42.26805,32.37159 11.50557,0.55403 17.1056,0.0352 27.24229,-2.52408 12.83087,-3.23946 31.21479,-11.106 39.13617,-16.74652 8.70894,-6.20132 5.78965,-2.60277 -10.82267,13.34093 -47.52215,45.60942 -95.87917,84.33785 -121.53589,97.33633 l -7.92037,4.01269 v -20.17299 c 0,-102.41097 28.39962,-206.61435 85.43174,-313.46463 62.41288,-116.93124 140.02636,-213.49684 208.58783,-259.52207 13.73317,-9.219056 34.54351,-20.907951 37.2235,-20.907951 0.50935,0 -0.93435,2.206388 -3.20822,4.90309 -10.05632,11.926211 -10.27659,21.682331 -0.68514,30.347621 7.0977,6.41235 11.40928,8.67761 37.0863,19.48491 42.43669,17.86139 67.62638,24.13786 97.20808,24.2212 17.5299,0.0494 21.5462,-0.4066 28.8359,-3.27394 9.4804,-3.72887 12.9404,-6.84882 14.6875,-13.24355 5.0074,-18.32754 -17.3305,-38.64866 -51.82097,-47.14237 -19.45168,-4.790203 -20.70784,-5.00042 -19.6497,-3.288298 0.53337,0.863003 1.65985,1.569103 2.5033,1.569103 2.99304,0 23.10368,12.631105 29.50457,18.531185 15.3719,14.16942 1.2335,21.60056 -29.15473,15.32371 -27.09117,-5.59583 -66.33363,-22.12473 -77.87064,-32.79907 -15.749,-14.57136 0.43415,-21.882749 44.80207,-20.241129 51.58061,1.908491 82.7175,15.975272 138.87478,62.739719 20.3233,16.92412 34.0841,24.33447 45.1881,24.33447 11.4662,0 22.4385,-3.76976 29.0091,-9.96665 l 5.6867,-5.36325 2.9072,3.51619 c 1.5989,1.93392 5.8077,9.62619 9.353,17.09396 21.383,45.04235 11.89,91.89804 -28.5213,140.777 -5.0174,6.06866 -20.0833,21.1022 -33.4798,33.40786 -13.3964,12.30567 -27.4426,26.00983 -31.2138,30.45371 -27.10128,31.93549 -31.56168,60.29825 -14.82258,94.25332 5.8307,11.82753 28.63298,45.18104 56.60268,82.79419 58.7319,78.98172 77.9738,123.44865 75.7273,175.00232 -0.4339,9.95703 -1.876,23.19536 -3.2047,29.4185 -7.9164,37.0775 -28.7719,82.75249 -57.1751,125.21718 -8.4746,12.66987 -31.558,43.86659 -32.0671,43.33802 -0.1811,-0.18797 2.9507,-10.18565 6.9597,-22.21706 14.0216,-42.08017 18.8875,-74.09248 17.6121,-115.86529 -1.1801,-38.64588 -6.0677,-60.34454 -19.947,-88.55551 -24.4729,-49.74367 -66.29048,-70.19848 -89.49138,-43.77416 -18.5568,21.13511 -30.39549,78.36259 -28.48076,137.6741 1.12028,34.70224 7.13406,53.35953 21.96306,68.13886 10.2186,10.18422 19.6344,14.29925 32.9372,14.39467 14.9674,0.10738 21.5451,-4.46918 29.86438,-20.77907 5.4472,-10.67914 6.0219,-12.94384 6.5919,-25.97671 0.436,-9.96785 0.059,-14.95906 -1.2491,-16.53511 -2.9666,-3.57444 -4.2844,-2.70567 -6.09478,4.01785 -3.62,13.44367 -10.6437,18.08155 -21.0667,13.91104 -9.5762,-3.83162 -18.1612,-17.77959 -23.5676,-38.29007 -5.1069,-19.37457 -1.8366,-67.83914 5.653,-83.77244 6.2779,-13.35579 17.0656,-17.70225 29.404,-11.84721 14.72808,6.98893 28.73208,40.49292 33.80978,80.88878 2.4893,19.80314 1.1493,83.81497 -2.203,105.24931 -3.0699,19.62867 -9.8705,48.29043 -16.6446,70.15179 -15.51418,50.0667 -32.71768,126.3224 -42.37418,187.8261 -5.8186,37.0592 -4.4341,63.7785 3.912,75.4995 2.8302,3.9746 10.34,7.6023 20.0701,9.6951 10.1882,2.1912 15.85878,16.2825 13.90278,34.5479 l -1.07088,10.0005 h -48.0495 -48.04921 z m 7.07109,-1051.74013 c 16.20785,-4.24499 25.77825,-5.78726 42.99615,-6.92879 12.1812,-0.80759 26.464,-1.8832 31.7395,-2.39026 l 9.5916,-0.9219 -5.0081,-5.16699 c -13.6316,-14.0642 -30.2621,-16.20727 -56.9803,-7.3427 -20.64219,6.84862 -44.95773,18.87503 -53.26063,26.34255 l -6.52176,5.86562 8.29752,-1.99856 c 4.56365,-1.0992 17.67936,-4.45574 29.14602,-7.45897 z M 317.08228,534.18595 c -3.25809,-8.49043 25.17948,-70.59528 54.73652,-119.53919 66.03759,-109.35248 148.73793,-189.69673 261.54313,-254.09183 16.90365,-9.64948 59.34704,-31.41122 61.26349,-31.41122 0.52695,0 -3.99449,4.5825 -10.04763,10.18332 -13.21255,12.22531 -34.24974,35.33465 -50.05445,54.98484 -51.33924,63.8306 -118.82878,183.70613 -140.63656,249.79985 -3.8,11.51681 -4.59111,12.72603 -10.19698,15.58593 -3.34255,1.70523 -11.94203,3.84069 -19.11,4.74546 -24.91872,3.14532 -36.76814,-3.00109 -41.73034,-21.64597 -4.50096,-16.91167 -1.8411,-55.49142 5.44622,-78.995 1.53256,-4.94289 2.56297,-9.21058 2.28981,-9.48374 -0.86506,-0.86507 -15.26256,16.54836 -22.67712,27.42741 -9.25454,13.57878 -20.52389,36.18318 -25.58595,51.32106 -7.94785,23.76771 -10.77546,52.2885 -6.08351,61.36171 6.72407,13.00293 31.12641,11.57411 69.1568,-4.04931 23.16855,-9.51795 23.66576,-9.63886 19.09017,-4.64154 -9.93331,10.84875 -42.01752,23.55045 -106.89539,42.31842 -30.30435,8.76648 -38.99195,10.08112 -40.50821,6.1298 z"
     id="path12"
     inkscape:connector-curvature="0"
     inkscape:label="Pokemon"
     sodipodi:insensitive="true" />
</svg>
